<?xml version="1.0" standalone="no"?>
<!DOCTYPE svg PUBLIC "-//W3C//DTD SVG 20010904//EN"
 "http://www.w3.org/TR/2001/REC-SVG-20010904/DTD/svg10.dtd">
<svg version="1.0" xmlns="http://www.w3.org/2000/svg"
 width="1000.000000pt" height="1000.000000pt" viewBox="0 0 1000.000000 1000.000000"
 preserveAspectRatio="xMidYMid meet">

<g transform="translate(0.000000,1000.000000) scale(0.100000,-0.100000)"
fill="#64001e" stroke="none">
<path d="M4835 9494 c-22 -2 -123 -9 -225 -15 -102 -6 -189 -15 -194 -20 -6
-5 -27 -9 -48 -9 -21 0 -57 -5 -80 -10 -24 -6 -88 -20 -143 -31 -55 -11 -127
-27 -160 -34 -33 -8 -82 -19 -110 -25 -27 -6 -59 -15 -70 -20 -11 -5 -37 -11
-59 -15 -21 -3 -46 -11 -55 -16 -9 -5 -63 -25 -121 -44 -58 -20 -114 -40 -125
-44 -11 -5 -40 -17 -65 -26 -38 -15 -115 -48 -255 -110 -171 -75 -515 -275
-668 -388 -40 -30 -78 -56 -84 -58 -12 -4 -45 -30 -173 -134 -30 -25 -86 -71
-125 -102 -76 -61 -398 -381 -455 -452 -19 -24 -54 -66 -77 -92 -23 -27 -61
-75 -84 -106 -24 -32 -46 -60 -49 -63 -8 -5 -41 -51 -118 -164 -78 -115 -62
-89 -206 -330 -10 -17 -43 -78 -74 -136 -30 -57 -58 -111 -63 -120 -5 -8 -17
-35 -27 -60 -60 -140 -85 -196 -92 -205 -5 -5 -18 -39 -30 -75 -11 -36 -25
-72 -29 -80 -5 -9 -12 -31 -16 -50 -4 -19 -11 -39 -15 -45 -3 -5 -20 -55 -35
-110 -16 -55 -32 -105 -37 -111 -4 -6 -11 -32 -14 -58 -4 -26 -11 -49 -15 -52
-5 -3 -9 -14 -9 -26 0 -11 -8 -57 -19 -102 -44 -191 -79 -399 -93 -556 -7 -79
-12 -274 -12 -470 2 -422 13 -548 88 -930 22 -113 36 -173 46 -195 5 -11 11
-39 14 -63 4 -24 11 -51 16 -60 5 -9 28 -78 51 -152 23 -74 45 -139 49 -145 4
-5 11 -26 15 -45 4 -19 11 -41 15 -50 27 -57 71 -156 94 -212 34 -83 209 -420
239 -460 13 -18 27 -40 31 -48 21 -46 178 -279 254 -376 150 -193 228 -281
427 -479 211 -211 263 -257 475 -417 173 -131 197 -148 204 -148 4 0 23 -12
42 -26 19 -15 48 -34 64 -43 17 -9 76 -44 133 -78 158 -95 430 -231 567 -283
30 -11 64 -25 75 -30 23 -10 287 -101 360 -123 106 -33 408 -103 490 -113 22
-3 49 -9 60 -14 47 -20 293 -30 737 -30 449 0 721 11 743 31 5 5 22 9 38 9 41
0 393 80 512 117 61 19 332 111 360 123 11 4 45 18 75 30 64 25 91 38 260 119
160 77 286 145 378 204 40 26 74 47 76 47 13 0 319 218 379 270 23 20 68 56
100 79 87 64 482 460 588 591 155 189 294 380 338 461 11 19 39 64 62 99 23
35 62 102 87 149 84 161 157 307 171 342 16 40 46 111 66 154 28 64 35 84 75
205 22 69 44 132 49 140 5 9 12 31 16 50 4 19 11 40 15 45 4 6 12 35 18 65 6
30 18 84 27 120 23 91 42 189 61 305 9 55 21 111 28 124 16 35 16 1225 -1
1301 -7 30 -17 84 -23 120 -16 91 -71 352 -78 370 -5 15 -19 67 -42 165 -7 28
-16 55 -20 60 -4 6 -19 48 -34 95 -15 47 -31 94 -36 105 -5 11 -18 47 -29 80
-11 33 -31 83 -44 110 -14 28 -35 75 -47 105 -34 82 -86 186 -193 384 -18 32
-37 66 -42 75 -6 9 -22 34 -36 56 -14 22 -34 56 -45 75 -10 19 -33 53 -50 75
-31 40 -84 120 -94 141 -6 12 -77 101 -165 207 -33 40 -90 108 -127 152 -74
89 -321 335 -413 411 -33 27 -92 76 -131 109 -136 113 -395 295 -558 390 -94
55 -313 170 -381 200 -122 54 -217 95 -255 110 -25 9 -54 21 -65 26 -11 4 -67
24 -125 44 -58 19 -112 39 -121 44 -9 5 -34 13 -55 16 -22 4 -48 10 -59 15
-11 5 -42 14 -70 20 -27 6 -77 18 -110 25 -33 8 -107 24 -165 35 -58 12 -121
25 -141 30 -20 6 -54 10 -76 10 -21 0 -43 4 -48 9 -22 20 -721 49 -860 35z
m450 -94 c539 -30 1046 -156 1545 -385 218 -100 484 -256 571 -335 56 -50 38
-50 -55 -1 -569 307 -1085 483 -1656 566 -150 22 -473 45 -627 45 -303 0 -684
-41 -968 -104 -154 -33 -265 -64 -455 -126 -470 -152 -967 -423 -1370 -746
-222 -177 -410 -359 -634 -612 -60 -67 -111 -121 -113 -118 -16 15 282 410
528 701 110 130 170 191 254 258 195 157 458 323 715 452 234 118 568 245 644
245 17 0 96 14 176 31 596 125 941 156 1445 129z m100 -760 c110 -11 227 -24
260 -30 33 -6 78 -14 100 -17 22 -3 45 -9 50 -13 6 -4 35 -10 65 -14 30 -4 59
-11 65 -15 5 -5 33 -11 60 -15 28 -3 68 -13 90 -20 22 -8 74 -24 115 -37 41
-12 82 -26 90 -30 8 -4 44 -17 80 -30 36 -12 69 -26 75 -31 5 -4 15 -8 23 -8
27 0 363 -165 474 -233 38 -23 84 -50 101 -60 18 -11 62 -41 100 -68 37 -27
70 -49 73 -49 12 0 215 -163 344 -277 192 -168 496 -524 606 -706 16 -27 36
-59 44 -72 54 -84 130 -215 130 -223 0 -5 14 -33 30 -63 51 -91 105 -209 140
-304 29 -78 34 -91 58 -150 11 -27 25 -68 32 -90 48 -167 66 -241 81 -325 5
-30 14 -64 19 -75 13 -27 45 -231 62 -390 17 -166 17 -543 0 -705 -16 -150
-51 -369 -62 -390 -4 -8 -11 -37 -15 -65 -3 -27 -10 -59 -15 -70 -4 -11 -18
-63 -30 -115 -27 -116 -69 -248 -81 -256 -5 -3 -9 -16 -9 -29 0 -13 -4 -26 -9
-29 -5 -3 -12 -18 -15 -33 -4 -16 -13 -41 -20 -58 -8 -16 -18 -41 -23 -55 -16
-41 -182 -372 -203 -405 -11 -16 -25 -41 -32 -55 -7 -14 -24 -41 -38 -60 -14
-19 -31 -46 -37 -60 -19 -43 -181 -260 -249 -333 -13 -14 -24 -29 -24 -32 0
-4 -48 -59 -107 -122 -117 -125 -284 -281 -409 -381 -88 -70 -281 -212 -290
-212 -3 0 -25 -13 -49 -30 -24 -16 -46 -30 -50 -30 -4 0 -25 -13 -48 -29 -92
-62 -389 -205 -562 -268 -22 -8 -60 -23 -85 -33 -76 -31 -240 -80 -265 -80
-13 0 -26 -4 -30 -9 -3 -5 -31 -13 -63 -17 -31 -3 -61 -10 -67 -14 -5 -4 -26
-10 -45 -13 -19 -3 -62 -11 -95 -17 -101 -19 -263 -39 -415 -51 -158 -12 -549
-6 -652 10 -35 6 -112 17 -173 26 -139 20 -216 34 -236 45 -9 4 -41 11 -73 15
-31 4 -59 11 -62 16 -3 5 -16 9 -29 9 -14 0 -42 6 -62 14 -21 7 -65 21 -98 31
-33 10 -82 27 -110 38 -27 10 -68 26 -90 34 -147 56 -191 76 -348 154 -87 43
-177 91 -200 106 -45 29 -55 36 -127 79 -68 41 -225 154 -281 201 -27 23 -74
61 -105 84 -70 51 -444 426 -444 444 0 7 -3 15 -7 17 -10 4 -104 116 -118 139
-5 9 -42 61 -80 115 -73 104 -75 107 -127 192 -18 30 -43 70 -56 90 -12 21
-30 53 -38 72 -9 19 -21 44 -27 55 -53 101 -114 226 -125 255 -7 19 -19 49
-27 65 -8 17 -17 44 -21 60 -4 17 -10 35 -14 40 -4 6 -11 26 -15 45 -4 19 -14
44 -21 55 -14 22 -69 206 -80 270 -3 22 -10 45 -14 50 -4 6 -11 39 -15 75 -4
35 -11 71 -15 80 -13 25 -39 176 -57 330 -23 198 -23 582 0 785 17 154 43 304
58 340 4 11 13 47 18 80 20 124 89 373 110 399 5 6 12 27 16 46 4 19 11 40 15
45 4 6 11 21 14 35 11 37 98 243 110 260 7 8 26 47 45 85 18 39 37 79 43 89
35 66 64 116 89 154 16 24 29 45 29 47 0 9 99 151 114 164 9 7 16 18 16 24 0
17 115 161 260 327 83 94 189 201 275 276 130 113 318 264 329 264 3 0 40 25
83 56 43 31 85 59 93 62 8 3 34 19 56 34 23 15 45 28 50 28 4 0 15 6 23 14 31
27 419 216 444 216 9 0 18 4 22 9 3 5 19 12 36 16 17 4 42 13 57 21 15 8 34
14 42 14 9 0 20 4 25 8 6 5 44 19 85 31 41 13 93 29 115 37 22 7 63 17 90 20
28 4 55 10 60 15 6 4 35 11 65 15 30 4 60 10 65 14 6 4 28 10 50 13 22 3 72
11 110 18 139 23 413 46 560 48 84 0 238 -8 350 -19z m2804 -5962 c-93 -175
-413 -537 -654 -739 -277 -232 -587 -429 -900 -572 -125 -57 -363 -149 -450
-174 -237 -69 -430 -111 -640 -140 -188 -26 -782 -26 -970 0 -413 57 -781 167
-1130 337 -214 104 -465 259 -465 289 0 9 4 10 13 4 6 -5 28 -16 47 -23 19 -8
89 -40 155 -73 441 -217 843 -342 1305 -408 193 -27 682 -38 850 -20 334 37
712 125 820 189 25 15 110 54 190 86 379 154 664 314 1010 568 63 46 123 87
133 91 24 9 124 77 222 151 94 71 269 239 381 366 78 89 106 112 83 68z"/>
<path d="M3968 7143 c-14 -2 -32 -11 -38 -19 -7 -8 -19 -14 -26 -14 -18 0
-134 -114 -134 -132 0 -8 -5 -19 -12 -26 -17 -17 -21 -45 -22 -142 -1 -84 0
-86 42 -150 75 -115 168 -165 296 -157 82 5 215 23 266 37 45 12 217 44 345
65 55 9 126 23 158 30 l57 13 0 -139 0 -139 -62 -31 c-82 -41 -169 -131 -216
-222 l-37 -72 2 -199 c1 -109 6 -203 11 -210 6 -6 12 -54 15 -106 3 -52 10
-144 17 -205 14 -139 39 -427 50 -570 l8 -110 39 -32 38 -33 291 0 291 0 37
33 37 32 20 225 c11 124 24 266 30 315 5 50 15 167 22 260 7 94 15 175 20 182
12 19 13 407 1 434 -47 100 -67 130 -124 189 -41 42 -87 76 -123 94 l-57 27 0
134 c0 150 -5 142 77 126 26 -5 89 -17 138 -25 84 -14 200 -36 305 -58 97 -20
229 -39 301 -45 131 -9 227 41 302 156 42 66 42 66 42 161 0 107 -11 138 -71
209 -62 72 -133 111 -212 117 -70 6 -105 1 -317 -40 -71 -15 -170 -33 -220
-41 -49 -9 -115 -21 -145 -27 -30 -6 -80 -14 -110 -18 -30 -4 -61 -9 -69 -11
-9 -2 -17 4 -19 15 -5 22 -7 26 -56 81 -34 39 -36 40 -101 40 -65 0 -68 -1
-102 -40 -53 -62 -55 -65 -49 -81 5 -13 -3 -14 -52 -9 -31 3 -88 12 -127 20
-38 7 -115 21 -170 30 -55 9 -156 28 -225 42 -217 43 -277 49 -362 36z m-3
-84 l27 -41 96 6 c81 6 126 3 267 -20 170 -28 386 -37 507 -22 58 7 68 13 68
42 0 28 36 76 56 76 10 0 14 -12 14 -37 0 -21 4 -44 9 -51 33 -53 401 -49 735
9 143 25 243 23 300 -6 49 -25 65 -48 50 -73 -9 -14 -33 -18 -155 -23 -79 -3
-233 -16 -341 -28 -176 -19 -236 -21 -565 -17 -246 3 -421 10 -528 21 -88 10
-235 20 -326 24 -161 6 -167 7 -207 35 -23 15 -49 40 -58 55 -10 14 -24 31
-33 37 -13 10 -10 15 19 33 19 11 36 21 36 21 1 0 14 -19 29 -41z m1084 -735
c3 -3 1 -8 -4 -12 -6 -4 -18 -24 -27 -44 -24 -51 -147 -126 -182 -110 -19 8
-25 21 -31 67 -8 68 6 84 75 85 25 0 54 8 65 16 14 11 32 14 60 9 21 -3 42 -8
44 -11z"/>
<path d="M2637 6154 c-31 -7 -80 -29 -107 -47 -52 -35 -120 -119 -120 -149 0
-9 -4 -20 -10 -23 -13 -8 -14 -2031 -1 -2039 5 -4 12 -44 16 -91 4 -47 11 -88
16 -91 5 -2 13 -24 19 -47 31 -118 87 -247 145 -331 25 -37 45 -69 45 -73 0
-10 151 -186 189 -219 250 -220 438 -316 776 -399 86 -21 399 -32 495 -17 145
23 302 71 440 135 50 23 204 119 264 164 34 26 105 91 158 146 l97 99 78 -82
c43 -46 109 -108 147 -139 73 -60 228 -161 286 -187 19 -8 49 -22 65 -29 71
-34 240 -81 375 -106 83 -16 410 -5 495 16 222 54 407 129 539 216 32 21 60
39 63 39 3 0 46 35 96 78 87 75 267 266 267 285 0 5 13 26 28 46 15 20 34 47
40 61 7 14 24 45 37 70 14 25 25 52 25 61 0 8 4 19 8 25 5 5 21 45 36 89 15
44 31 87 36 96 5 9 12 53 15 98 4 45 12 84 16 87 12 7 12 2031 0 2038 -4 3
-11 21 -14 39 -6 36 -89 137 -112 137 -7 0 -18 6 -24 13 -6 8 -44 22 -84 32
-70 17 -77 17 -141 1 -78 -19 -129 -49 -175 -102 -70 -79 -65 -7 -72 -1074 -6
-968 -9 -1053 -44 -1157 -22 -66 -73 -170 -107 -218 -39 -54 -164 -182 -193
-197 -14 -7 -50 -29 -82 -48 -136 -83 -220 -104 -433 -104 -213 0 -282 17
-445 108 -73 41 -265 222 -265 249 0 8 -6 20 -14 26 -18 15 -60 103 -86 181
-26 76 -40 167 -49 305 -7 119 -14 137 -80 208 -119 127 -361 127 -468 0 -65
-76 -76 -107 -80 -238 -3 -66 -9 -124 -14 -129 -5 -6 -9 -24 -9 -42 0 -44 -43
-170 -82 -243 -42 -77 -152 -206 -222 -260 -29 -23 -56 -41 -59 -41 -3 0 -22
-11 -42 -24 -43 -29 -146 -69 -237 -91 -83 -20 -329 -16 -426 7 -112 28 -270
116 -361 202 -91 86 -198 254 -216 339 -4 17 -11 37 -16 43 -27 33 -32 202
-38 1139 l-6 970 -37 56 c-48 71 -106 112 -190 132 -78 20 -75 20 -151 1z
m-23 -79 c19 -35 26 -38 118 -59 34 -8 62 -57 54 -92 -7 -28 -41 -44 -92 -44
-51 0 -72 15 -85 63 -13 45 -42 94 -68 115 -14 12 -14 15 8 33 33 27 44 24 65
-16z m4689 0 c11 -23 26 -37 44 -41 83 -19 104 -27 118 -47 22 -32 19 -73 -7
-91 -30 -21 -112 -21 -132 0 -9 8 -21 36 -27 61 -7 26 -26 60 -46 81 l-35 37
22 17 c32 26 44 22 63 -17z m-2201 -1677 c9 -8 20 -45 27 -93 16 -113 15 -131
-11 -149 -23 -16 -114 -22 -134 -8 -6 4 -21 37 -33 74 -15 45 -32 76 -52 92
l-29 25 22 20 c12 12 30 21 40 21 26 0 25 0 55 15 34 18 94 19 115 3z m-413
-934 c-63 -103 -213 -235 -345 -302 -65 -33 -142 -61 -234 -84 -112 -28 -319
-30 -430 -4 -139 33 -340 146 -340 191 0 19 -4 20 98 -16 209 -73 400 -95 552
-65 47 9 104 27 127 39 172 90 217 115 284 158 42 27 87 49 100 49 34 1 95 31
159 79 68 52 78 36 29 -45z m2381 71 c0 -14 -37 -75 -76 -126 -122 -159 -327
-282 -560 -335 -106 -24 -322 -24 -414 1 -79 20 -204 71 -245 99 -68 47 -105
79 -105 92 0 21 21 17 149 -26 146 -50 295 -74 417 -67 93 5 227 38 254 63 9
7 58 35 110 62 52 26 121 65 152 86 33 22 78 42 105 47 32 6 72 26 118 59 64
45 95 59 95 45z"/>
</g>
</svg>
